<?xml version="1.0" encoding="UTF-8" standalone="no"?>
<!-- Created with Inkscape (http://www.inkscape.org/) -->

<svg
   width="6.1999998cm"
   height="6.1999998cm"
   viewBox="0 0 61.999998 61.999998"
   version="1.1"
   id="svg5"
   inkscape:version="1.2.2 (b0a8486541, 2022-12-01)"
   sodipodi:docname="logo.svg"
   xmlns:inkscape="http://www.inkscape.org/namespaces/inkscape"
   xmlns:sodipodi="http://sodipodi.sourceforge.net/DTD/sodipodi-0.dtd"
   xmlns="http://www.w3.org/2000/svg"
   xmlns:svg="http://www.w3.org/2000/svg">
  <sodipodi:namedview
     id="namedview7"
     pagecolor="#ffffff"
     bordercolor="#000000"
     borderopacity="0.25"
     inkscape:showpageshadow="2"
     inkscape:pageopacity="0.0"
     inkscape:pagecheckerboard="0"
     inkscape:deskcolor="#d1d1d1"
     inkscape:document-units="mm"
     showgrid="true"
     inkscape:zoom="2.1946698"
     inkscape:cx="123.93664"
     inkscape:cy="115.2793"
     inkscape:window-width="1914"
     inkscape:window-height="1049"
     inkscape:window-x="0"
     inkscape:window-y="25"
     inkscape:window-maximized="1"
     inkscape:current-layer="layer1">
    <inkscape:grid
       type="xygrid"
       id="grid155"
       units="mm"
       spacingx="0.99999999"
       spacingy="0.99999999"
       originx="-19"
       originy="-14" />
  </sodipodi:namedview>
  <defs
     id="defs2" />
  <g
     inkscape:label="Layer 1"
     inkscape:groupmode="layer"
     id="layer1"
     transform="translate(-19,-14)">
    <rect
       style="fill:none;stroke:#2b0000;stroke-width:2;stroke-linejoin:round;stroke-dasharray:none"
       id="rect293"
       width="60"
       height="50"
       x="20"
       y="25" />
    <path
       style="fill:none;stroke:#2b0000;stroke-width:2;stroke-linecap:round;stroke-linejoin:round;stroke-dasharray:none"
       d="M 59.999998,15 50,24.999999 40,15"
       id="path1011" />
    <path
       id="rect3378"
       style="fill:#54bf56;fill-opacity:1;stroke:#009001;stroke-width:2;stroke-linecap:round;stroke-linejoin:round;stroke-opacity:1"
       d="m 29.366204,55.116078 c 1.367919,-1.019239 2.856302,-1.842924 4.404606,-2.569247 1.548304,-0.726323 2.113641,-3.570791 3.721245,-4.200581 1.607605,-0.629791 4.257478,0.955097 5.803297,0.225455 1.545819,-0.729641 3.030474,-1.558304 4.393423,-2.584179 5.17277,-3.893484 8.755698,-9.539643 13.133547,-14.309465 3.080204,-3.355992 8.781411,-1.967885 11.499189,1.690139 0.679444,0.914506 2.437801,0.202808 3.129708,2.313202 0.691906,2.110393 -1.432081,2.755054 -1.584608,3.795788 -0.152527,1.040733 -0.504133,2.052207 -1.045907,2.973602 -0.541773,0.921395 -1.273713,1.752713 -2.186906,2.433135 -1.297908,0.967074 -2.444411,2.10161 -3.514916,3.320271 -1.070505,1.21866 0.0166,4.111772 -1.216014,5.593072 -1.232612,1.481301 -3.830164,0.839876 -4.898311,2.061685 -1.068148,1.221809 -2.211113,2.361067 -3.504306,3.334438 -1.362949,1.025876 -2.807864,1.91917 -4.304007,2.7296 -1.496144,0.810431 -3.043517,1.537998 -4.611381,2.23242 -1.567864,0.694422 -2.163654,3.322739 -3.741764,4.000589 -1.57811,0.677849 -4.13854,-0.59477 -5.665421,0.165943 -2.038625,1.015671 -4.233977,1.507641 -6.259396,1.288442 -2.025418,-0.2192 -3.880902,-1.14957 -5.239791,-2.978582 -2.717779,-3.658025 -1.965059,-8.79404 1.687713,-11.515727 z"
       sodipodi:nodetypes="sszsssszsssszsssszssss" />
    <path
       style="fill:none;fill-opacity:1;stroke:#009001;stroke-width:1;stroke-linecap:round;stroke-linejoin:round;stroke-dasharray:none;stroke-opacity:1"
       d="m 30.959738,62.719014 c 0,0 5.524185,-1.258292 12.154788,-5.171286"
       id="path15836"
       sodipodi:nodetypes="cc" />
    <path
       style="fill:none;fill-opacity:1;stroke:#009001;stroke-width:1;stroke-linecap:round;stroke-linejoin:round;stroke-dasharray:none;stroke-opacity:1"
       d="m 48.656482,53.960017 c 0,0 0.308879,-0.173158 0.854258,-0.520862 0.545378,-0.347704 0.09733,0.235927 2.27325,-1.568136 2.175922,-1.804063 1.082826,-3.482661 2.284677,-4.534096 1.201852,-1.051435 2.248256,0.71965 4.781669,-1.777288"
       id="path15836-5"
       sodipodi:nodetypes="cszsc" />
    <path
       style="fill:none;fill-opacity:1;stroke:#009001;stroke-width:1;stroke-linecap:round;stroke-linejoin:round;stroke-dasharray:none;stroke-opacity:1"
       d="m 61.331918,42.986245 c 0,0 2.754884,-2.574369 4.214749,-4.272201"
       id="path15836-5-3"
       sodipodi:nodetypes="cc" />
    <circle
       style="fill:none;fill-opacity:1;stroke:#009001;stroke-width:1;stroke-linecap:round;stroke-linejoin:round;stroke-dasharray:none;stroke-opacity:1"
       id="path16660"
       cx="45.607616"
       cy="55.493504"
       r="1.1722065" />
  </g>
</svg>
